<svg width="26" height="29" viewBox="0 0 26 29" fill="none" xmlns="http://www.w3.org/2000/svg">
<path d="M13 14.5C14.9702 14.5 16.8597 13.7362 18.2528 12.3765C19.6459 11.0169 20.4286 9.17282 20.4286 7.25C20.4286 5.32718 19.6459 3.48311 18.2528 2.12348C16.8597 0.763837 14.9702 0 13 0C11.0298 0 9.14033 0.763837 7.74721 2.12348C6.35408 3.48311 5.57143 5.32718 5.57143 7.25C5.57143 9.17282 6.35408 11.0169 7.74721 12.3765C9.14033 13.7362 11.0298 14.5 13 14.5ZM10.3478 17.2188C4.63125 17.2188 0 21.7387 0 27.3178C0 28.2467 0.771875 29 1.72366 29H24.2763C25.2281 29 26 28.2467 26 27.3178C26 21.7387 21.3687 17.2188 15.6522 17.2188H10.3478Z" fill="black"/>
</svg>
